<?xml version="1.0" standalone="no"?>
<!DOCTYPE svg PUBLIC "-//W3C//DTD SVG 20010904//EN"
 "http://www.w3.org/TR/2001/REC-SVG-20010904/DTD/svg10.dtd">
<svg version="1.0" xmlns="http://www.w3.org/2000/svg"
 width="1553.000000pt" height="1312.000000pt" viewBox="0 0 1553.000000 1312.000000"
 preserveAspectRatio="xMidYMid meet">

<g transform="translate(0.000000,1312.000000) scale(0.100000,-0.100000)"
fill="#000000" stroke="none">
<path d="M14072 13105 c-187 -41 -309 -160 -342 -335 -22 -118 -5 -288 49
-481 l27 -96 -28 -33 c-107 -129 -57 -333 102 -415 17 -9 27 -21 24 -28 -11
-31 15 -343 35 -407 23 -75 74 -162 135 -234 83 -98 143 -252 152 -391 7 -110
11 -125 33 -125 28 0 31 20 20 116 -22 198 -64 306 -163 428 -124 150 -147
217 -153 447 l-5 166 62 6 c37 3 81 15 111 30 l48 25 12 -56 c14 -71 69 -132
118 -132 43 0 43 33 0 50 -70 30 -87 120 -47 256 l21 74 48 0 c45 0 48 -1 54
-32 29 -132 160 -228 295 -215 69 6 112 26 168 80 43 42 82 124 82 173 0 19 4
24 18 20 9 -2 33 -7 52 -11 61 -11 69 -15 72 -38 4 -32 30 -27 47 8 36 77 74
85 132 26 34 -34 39 -44 39 -85 0 -26 -7 -61 -16 -78 -24 -46 -99 -123 -155
-159 -49 -31 -67 -69 -32 -69 27 0 107 57 161 113 79 85 107 154 91 227 -9 38
-6 45 46 131 170 282 190 539 54 694 -74 84 -218 151 -379 176 -41 7 -127 31
-190 55 -310 115 -610 159 -798 119z m797 -606 c136 -29 236 -177 257 -381 5
-55 4 -65 -14 -81 -20 -18 -24 -18 -97 -3 -43 9 -79 16 -81 16 -2 0 -13 23
-25 50 -41 96 -153 170 -255 170 -110 0 -224 -84 -259 -190 l-17 -50 -48 0
c-49 0 -49 1 -60 38 -13 51 -61 116 -110 150 -22 15 -39 35 -40 45 0 30 82
103 143 125 70 27 161 42 249 42 37 0 69 4 73 9 11 19 158 66 217 70 9 1 40
-4 67 -10z m-773 -303 c149 -69 179 -258 59 -364 -98 -86 -225 -83 -315 8 -86
86 -93 204 -17 296 38 46 118 84 177 84 26 0 66 -10 96 -24z m628 13 c51 -14
128 -91 144 -145 26 -89 8 -160 -57 -225 -92 -93 -221 -93 -311 0 -93 95 -94
218 -2 310 66 66 138 85 226 60z"/>
<path d="M13980 12134 c-62 -11 -70 -15 -70 -34 0 -19 7 -20 115 -20 107 0
115 1 115 19 0 11 -8 22 -17 25 -30 8 -117 14 -143 10z"/>
<path d="M13945 12005 c-16 -15 -25 -36 -25 -55 0 -38 39 -80 75 -80 36 0 75
42 75 80 0 38 -39 80 -75 80 -14 0 -37 -11 -50 -25z"/>
<path d="M14645 12174 c-11 -3 -30 -7 -42 -10 -15 -3 -23 -12 -23 -24 0 -19 7
-20 100 -20 92 0 100 2 100 19 0 11 -8 22 -17 25 -32 9 -98 14 -118 10z"/>
<path d="M14621 12004 c-12 -15 -21 -39 -21 -54 0 -36 35 -80 65 -80 30 0 65
44 65 80 0 36 -35 80 -65 80 -14 0 -32 -11 -44 -26z"/>
<path d="M15161 11902 c-12 -42 -35 -68 -66 -74 -12 -2 -21 -13 -23 -26 -3
-19 1 -22 27 -22 55 0 117 75 109 131 -5 41 -36 35 -47 -9z"/>
<path d="M11657 11429 c-202 -23 -418 -150 -541 -317 -297 -406 -134 -990 331
-1186 150 -63 85 -60 1268 -64 723 -2 1113 0 1179 8 292 31 538 212 649 475
33 80 46 131 57 223 9 83 1 112 -30 112 -26 0 -40 -29 -40 -87 -1 -164 -110
-376 -254 -494 -74 -61 -198 -123 -286 -143 -97 -23 -2312 -23 -2408 -1 -204
48 -378 189 -471 380 -53 108 -71 189 -71 316 0 129 19 209 72 319 35 70 59
102 137 181 80 79 111 102 181 136 157 76 106 73 1139 73 617 0 929 3 942 10
10 6 19 19 19 30 0 11 -9 24 -19 30 -23 12 -1748 12 -1854 -1z"/>
<path d="M14190 11392 c0 -43 91 -95 165 -95 71 0 175 56 175 94 0 27 -22 24
-77 -11 -71 -45 -168 -39 -212 14 -19 22 -51 20 -51 -2z"/>
<path d="M11620 10960 l0 -40 838 2 837 3 0 35 0 35 -837 3 -838 2 0 -40z"/>
<path d="M11620 10645 l0 -35 1170 0 1170 0 0 35 0 35 -1170 0 -1170 0 0 -35z"/>
<path d="M11608 10379 c-26 -15 -23 -55 5 -63 12 -3 270 -6 574 -6 488 0 553
2 567 16 9 8 16 19 16 24 0 5 -7 16 -16 24 -14 14 -79 16 -572 16 -360 -1
-563 -4 -574 -11z"/>
<path d="M9370 10165 c-156 -32 -265 -88 -365 -189 -163 -165 -215 -369 -215
-848 0 -337 -8 -369 -122 -496 -52 -57 -58 -82 -32 -137 54 -114 247 -252 449
-321 66 -23 98 -28 185 -28 96 -1 110 2 162 27 31 15 68 41 82 58 29 34 45 35
166 14 217 -39 297 -37 390 10 60 31 144 107 195 179 27 38 45 54 55 50 62
-25 183 -9 218 29 70 75 67 233 -8 438 -37 100 -53 225 -45 354 12 180 -22
380 -86 508 -36 71 -132 175 -196 213 -69 40 -151 64 -238 70 -49 4 -104 16
-143 31 -133 51 -312 66 -452 38z m728 -481 c22 -24 58 -80 81 -122 40 -78 91
-233 91 -278 0 -24 -1 -24 -30 -9 -90 46 -207 -30 -226 -147 -5 -26 -11 -33
-30 -34 -13 -1 -35 -5 -48 -8 -20 -5 -29 0 -46 24 -26 37 -88 70 -130 70 -45
0 -107 -35 -133 -75 -14 -22 -30 -35 -44 -35 -17 0 -9 12 44 63 146 139 314
407 358 570 l18 66 28 -20 c15 -10 46 -40 67 -65z m133 -461 c35 -21 69 -87
69 -134 -1 -77 -59 -149 -120 -149 -39 0 -81 30 -101 73 -24 55 -24 101 2 154
33 68 92 90 150 56z m-421 -108 c36 -19 70 -82 70 -131 0 -73 -58 -144 -118
-144 -63 0 -122 71 -122 146 0 49 27 103 64 125 38 23 67 24 106 4z m-479
-100 c44 -29 75 -31 126 -10 19 8 57 15 83 15 l47 0 6 -57 c4 -40 14 -69 34
-96 99 -140 281 -77 301 103 l7 65 42 3 c39 3 42 1 48 -28 10 -44 75 -107 119
-116 59 -10 104 4 146 46 l39 39 7 -56 c8 -68 -2 -194 -22 -286 -19 -81 -72
-165 -160 -255 -116 -116 -199 -133 -453 -91 -69 11 -140 23 -157 25 -24 3
-58 32 -147 123 -97 99 -119 127 -129 165 -7 25 -19 48 -28 51 -45 14 -111 68
-135 110 -53 89 -24 227 55 268 46 24 120 16 171 -18z"/>
<path d="M10157 9143 c-12 -11 -8 -78 5 -91 29 -29 58 -8 58 42 0 35 -44 69
-63 49z"/>
<path d="M9737 9033 c-15 -14 -6 -70 13 -88 16 -15 22 -15 35 -5 18 15 20 71
3 88 -13 13 -41 16 -51 5z"/>
<path d="M9993 8993 c-18 -7 -16 -31 7 -98 30 -88 27 -111 -15 -125 -24 -8
-35 -18 -35 -31 0 -44 104 -9 117 39 9 35 7 52 -19 132 -22 70 -36 90 -55 83z"/>
<path d="M9174 8928 c-9 -29 -9 -122 0 -137 4 -6 16 -11 27 -11 17 0 19 8 19
85 0 77 -2 85 -19 85 -12 0 -23 -9 -27 -22z"/>
<path d="M10053 8555 c-19 -22 -30 -25 -88 -25 -63 0 -66 -1 -63 -22 2 -18 12
-24 42 -29 77 -12 158 24 164 74 4 35 -25 36 -55 2z"/>
<path d="M7815 9415 c-5 -2 -22 -6 -36 -9 -15 -3 -30 -13 -33 -22 -12 -31 13
-53 87 -74 39 -12 90 -27 112 -34 l39 -12 -101 -53 c-297 -156 -495 -389 -573
-676 -31 -111 -39 -345 -16 -476 17 -101 50 -222 84 -306 l21 -52 -87 51
c-294 170 -538 255 -763 265 -198 9 -334 -26 -479 -122 -145 -96 -320 -316
-445 -558 -27 -53 -53 -97 -57 -97 -4 0 -10 9 -13 21 -4 11 -39 69 -78 127
-126 189 -320 361 -493 438 -126 56 -312 88 -349 61 -16 -13 -17 -17 -6 -31 8
-9 21 -14 31 -11 23 7 154 -12 215 -31 68 -22 173 -75 248 -126 130 -87 324
-314 393 -460 18 -39 42 -53 72 -44 9 4 42 54 72 113 154 298 333 508 507 595
129 65 214 82 372 75 214 -9 433 -83 710 -237 140 -79 163 -88 189 -71 21 13
18 42 -17 126 -58 144 -82 262 -88 435 -4 129 -2 171 15 250 64 311 270 556
605 721 133 66 128 96 -28 146 l-90 28 90 3 c153 5 305 -25 305 -60 0 -6 -22
-40 -49 -77 -92 -125 -129 -232 -116 -334 9 -75 14 -87 35 -87 17 0 19 9 18
103 -1 123 14 165 103 289 33 45 59 90 59 100 0 79 -115 118 -345 117 -60 0
-114 -2 -120 -4z"/>
<path d="M10818 8830 c-24 -14 -23 -47 1 -60 13 -6 250 -10 699 -10 642 0 683
-1 756 -20 194 -49 370 -190 458 -367 63 -125 82 -214 76 -361 -4 -93 -10
-134 -32 -197 -73 -213 -243 -382 -452 -451 l-89 -29 -830 0 -830 0 -80 28
c-229 81 -406 273 -465 503 -11 43 -20 99 -20 126 0 58 -13 88 -40 88 -31 0
-39 -29 -30 -110 12 -104 27 -163 65 -246 101 -222 289 -380 530 -447 79 -21
86 -22 865 -22 730 0 791 1 865 19 292 67 522 291 596 581 26 103 28 260 4
365 -66 287 -283 509 -580 592 -79 22 -92 22 -765 25 -468 2 -691 0 -702 -7z"/>
<path d="M11054 8376 c-3 -8 -4 -25 -2 -38 l3 -23 588 -3 587 -2 0 40 0 40
-585 0 c-498 0 -586 -2 -591 -14z"/>
<path d="M10590 8035 l0 -35 820 0 820 0 0 35 0 35 -820 0 -820 0 0 -35z"/>
<path d="M13778 7815 c-169 -43 -292 -161 -355 -342 -25 -71 -27 -91 -27 -218
0 -123 3 -153 28 -245 45 -165 81 -248 141 -328 l54 -72 11 -141 c6 -78 13
-146 17 -152 3 -6 1 -7 -5 -3 -22 13 -42 109 -42 202 0 65 -4 95 -14 103 -50
42 -55 -185 -6 -297 12 -26 36 -63 55 -82 19 -20 38 -54 45 -80 52 -198 197
-386 348 -451 257 -111 568 73 668 394 16 51 21 57 45 57 37 0 102 24 140 52
67 49 106 159 88 251 -8 45 -6 54 25 110 80 145 136 333 136 455 0 271 -186
476 -504 557 -54 14 -121 25 -148 25 -42 0 -56 6 -98 39 -66 52 -177 112 -270
146 -93 34 -242 43 -332 20z m686 -656 c15 -111 65 -203 167 -305 l61 -62 -16
-78 c-34 -171 -47 -376 -25 -389 16 -11 45 21 58 66 7 22 28 58 48 80 29 32
42 39 73 39 23 0 48 -8 64 -21 23 -18 26 -28 26 -77 0 -120 -81 -202 -200
-202 -44 0 -55 -11 -64 -65 -4 -22 -26 -78 -48 -125 -53 -109 -142 -201 -243
-251 -66 -32 -75 -34 -175 -34 -100 0 -108 1 -168 34 -141 77 -254 245 -308
461 -22 90 -27 134 -31 302 -4 123 -1 246 7 327 l12 129 77 7 c188 17 405 77
563 155 46 23 87 46 93 51 17 17 22 9 29 -42z"/>
<path d="M13895 6713 c-44 -9 -75 -26 -75 -42 0 -14 14 -16 100 -16 89 0 100
2 100 18 0 25 -77 50 -125 40z"/>
<path d="M14345 6703 c-65 -16 -47 -53 26 -53 43 0 51 -4 76 -35 33 -41 63
-47 63 -11 0 28 -70 96 -99 96 -11 0 -25 2 -33 4 -7 2 -22 1 -33 -1z"/>
<path d="M13877 6532 c-22 -24 -21 -55 1 -75 23 -21 46 -22 66 -1 21 21 20 57
-2 77 -24 22 -45 21 -65 -1z"/>
<path d="M14163 6543 c-9 -3 -13 -33 -13 -103 0 -74 -4 -102 -15 -114 -23 -23
-19 -46 10 -46 40 0 58 48 58 153 -1 90 -12 121 -40 110z"/>
<path d="M14337 6522 c-21 -23 -22 -46 -1 -66 21 -21 57 -20 77 2 22 24 21 45
-1 65 -24 22 -55 21 -75 -1z"/>
<path d="M14807 6443 c-4 -3 -7 -17 -7 -30 0 -16 -10 -30 -30 -41 -35 -20 -41
-52 -10 -52 49 0 104 67 93 111 -5 19 -33 26 -46 12z"/>
<path d="M14000 6093 c0 -10 20 -40 44 -68 38 -43 47 -49 81 -48 21 1 41 7 46
14 11 19 -9 39 -41 39 -19 0 -36 11 -59 40 -33 42 -71 54 -71 23z"/>
<path d="M11438 7779 c-24 -13 -23 -46 1 -59 21 -11 758 -15 799 -4 28 8 30
49 3 64 -27 14 -779 13 -803 -1z"/>
<path d="M3711 7549 c-71 -14 -141 -39 -214 -77 -172 -89 -277 -298 -264 -522
3 -52 15 -124 26 -161 36 -114 139 -241 248 -306 l43 -25 -20 -38 c-35 -68
-71 -212 -77 -305 l-6 -90 -83 -87 c-177 -187 -223 -398 -150 -678 24 -94 99
-285 135 -346 l19 -32 -91 -53 c-199 -117 -341 -304 -377 -499 -7 -36 -24 -89
-37 -118 -23 -46 -25 -61 -21 -135 5 -72 3 -87 -17 -122 -13 -22 -37 -79 -54
-127 -87 -250 -85 -537 5 -765 48 -122 126 -243 156 -243 27 0 22 27 -18 87
-49 73 -99 184 -126 279 -20 69 -23 101 -23 259 0 158 3 191 24 270 13 50 35
115 48 145 l25 55 19 -64 c18 -62 18 -64 -1 -90 -34 -48 -30 -90 14 -131 31
-29 33 -35 23 -61 -9 -22 -8 -37 2 -61 7 -18 13 -60 12 -94 -2 -54 1 -64 26
-91 26 -28 28 -33 19 -74 -5 -24 -9 -129 -9 -234 -1 -148 3 -200 15 -237 9
-27 15 -48 13 -48 -1 0 -58 27 -126 59 -162 77 -243 105 -420 147 -399 93
-756 50 -1113 -134 -287 -148 -516 -389 -686 -722 -76 -149 -121 -282 -123
-364 l-2 -62 -74 29 c-209 81 -345 87 -395 16 -54 -78 39 -201 220 -292 l52
-26 -5 -43 c-8 -79 51 -137 183 -183 143 -49 414 -91 536 -83 59 5 74 10 99
34 28 27 59 104 59 149 0 18 13 25 93 49 101 30 206 82 291 145 30 23 58 41
62 41 4 0 43 -35 88 -78 361 -346 1054 -553 1851 -554 646 -1 942 87 1210 357
251 253 384 620 411 1135 l7 136 39 29 c22 17 71 62 108 101 264 277 402 721
369 1182 -19 271 -104 582 -213 777 -45 80 -139 182 -208 226 l-52 33 76 12
c160 25 271 72 404 172 118 89 179 159 224 256 54 118 70 183 77 321 22 459
-246 810 -712 934 -30 8 -43 18 -52 38 -94 231 -149 357 -179 411 -118 216
-306 383 -474 421 -71 16 -216 12 -295 -8 l-70 -19 -54 50 c-124 113 -313 162
-490 127z m790 -992 c47 -32 79 -83 79 -127 l0 -37 -67 -5 c-127 -9 -239 -96
-284 -219 -21 -58 -23 -59 -59 -59 -83 0 -96 7 -109 63 -15 64 -50 125 -96
165 -19 17 -35 34 -35 37 0 3 24 5 53 5 81 0 229 35 301 70 35 18 88 54 118
81 29 26 56 48 59 49 3 0 21 -10 40 -23z m-821 -158 c0 -3 -15 -13 -34 -21
-18 -9 -51 -31 -71 -50 -36 -31 -37 -32 -30 -8 4 14 16 46 27 71 l19 46 45
-16 c24 -9 44 -18 44 -22z m183 -52 c91 -39 157 -145 157 -254 0 -123 -65
-233 -165 -279 -51 -24 -145 -33 -145 -14 0 6 5 10 11 10 18 0 40 67 30 92
-30 80 -133 83 -166 5 l-14 -32 -27 60 c-51 110 -31 246 50 342 60 71 187 104
269 70z m730 -21 c61 -22 103 -62 136 -127 96 -192 -32 -429 -231 -429 l-59 0
22 30 c29 38 29 84 0 114 -42 44 -105 37 -140 -17 l-18 -28 -22 50 c-26 61
-28 166 -5 234 8 25 34 67 56 92 74 84 169 114 261 81z m-443 -266 l49 0 6
-47 c25 -186 139 -297 303 -295 73 1 169 47 216 106 37 44 75 120 76 147 0 19
23 24 144 35 77 6 78 6 71 -15 -4 -15 -1 -23 10 -27 11 -4 28 7 55 35 32 36
43 42 72 39 47 -4 63 -55 48 -150 -22 -141 -64 -193 -134 -164 -18 8 -37 19
-40 25 -14 21 -26 10 -67 -61 -156 -273 -278 -404 -471 -507 -190 -102 -379
-100 -547 6 -107 67 -226 198 -310 339 -47 80 -105 234 -116 308 l-8 48 44
-47 c79 -85 180 -114 291 -81 106 31 206 152 224 273 5 33 10 43 21 39 8 -3
36 -6 63 -6z m470 -970 c-13 -107 -20 -126 -37 -96 -4 8 -21 21 -37 30 -41 21
-71 7 -132 -62 l-52 -57 -78 0 c-69 0 -89 5 -151 34 -57 26 -76 31 -87 22 -19
-16 -24 2 -17 64 7 56 -1 53 111 35 112 -19 239 8 373 78 48 25 93 52 99 59
20 24 21 5 8 -107z m-74 -131 c14 -15 20 -40 22 -94 4 -72 4 -73 -33 -113
-107 -119 -290 -125 -418 -12 -33 29 -134 168 -126 173 2 1 14 8 26 14 12 7
24 9 27 4 19 -30 175 -81 249 -81 67 0 107 20 157 79 47 56 67 62 96 30z
m-610 -38 c-8 -12 60 -121 112 -181 23 -27 62 -61 86 -75 l44 -26 -49 -46
c-65 -61 -101 -136 -103 -213 -1 -35 4 -64 12 -71 20 -21 36 6 38 66 2 72 33
134 96 190 64 57 78 58 78 2 0 -23 6 -67 14 -97 l14 -55 -45 -44 c-48 -45
-132 -91 -170 -91 -34 0 -53 -11 -53 -30 0 -57 152 -9 253 80 26 23 47 37 47
32 0 -18 87 -100 127 -121 37 -18 41 -19 56 -3 11 10 17 12 17 4 0 -7 9 -12
19 -12 26 0 34 29 34 115 -1 85 -28 167 -77 234 l-36 49 43 25 c64 38 116 99
123 146 6 40 7 40 63 48 103 15 350 9 421 -10 268 -71 411 -261 520 -690 53
-210 64 -310 57 -540 -6 -204 -22 -306 -73 -470 -86 -272 -255 -504 -468 -642
-133 -87 -205 -114 -297 -115 -166 0 -346 48 -544 146 -199 98 -383 240 -553
428 -145 159 -159 250 -48 309 35 18 62 22 183 25 333 10 747 -85 944 -217 34
-23 70 -41 80 -41 47 0 3 54 -82 102 -40 22 -40 23 -34 67 12 78 73 313 105
406 18 50 52 130 76 178 49 98 53 117 25 117 -13 0 -30 -18 -50 -52 l-31 -53
0 76 c0 89 19 161 66 248 19 35 33 70 30 77 -11 28 -36 13 -66 -38 -70 -122
-97 -251 -80 -382 9 -72 8 -79 -29 -193 -22 -65 -53 -181 -71 -258 -17 -77
-33 -141 -35 -143 -2 -2 -16 3 -32 11 -90 46 -374 116 -561 137 -147 17 -383
9 -446 -16 -105 -41 -143 -143 -93 -246 33 -67 161 -211 278 -314 298 -259
592 -395 923 -424 93 -8 104 -7 165 16 36 14 94 40 129 59 l62 35 0 -44 0 -43
-97 -21 c-54 -12 -127 -27 -163 -33 -103 -17 -450 -23 -585 -10 -261 25 -557
89 -786 171 -105 37 -393 184 -439 223 -11 9 -29 49 -42 89 -20 63 -23 95 -23
228 0 175 10 270 29 270 18 0 378 -180 456 -228 65 -40 90 -44 90 -13 0 29
-290 190 -498 276 -95 39 -112 54 -112 99 l0 25 45 -20 c90 -40 113 0 25 43
-60 30 -90 60 -90 89 0 31 17 31 64 -2 44 -32 76 -34 76 -6 0 8 -38 40 -84 71
-46 31 -89 63 -96 71 -19 23 -8 60 19 63 40 6 67 -6 120 -54 28 -25 55 -43 61
-39 32 20 -15 80 -105 132 -60 35 -68 61 -29 92 46 36 54 31 167 -103 103
-120 242 -156 262 -67 4 17 -1 57 -9 91 -27 103 -19 140 30 140 31 0 60 -40
74 -103 21 -88 58 -175 110 -262 28 -46 61 -108 75 -139 19 -43 28 -54 41 -49
28 10 10 78 -44 167 -73 120 -99 176 -123 263 -12 43 -30 94 -40 114 -20 41
-73 71 -107 62 -28 -7 -27 -4 3 37 48 65 86 240 62 290 -17 35 -60 54 -89 39
-31 -16 -28 -12 -43 -56 -13 -35 -14 -27 -15 110 0 86 -5 157 -11 169 -14 26
-69 49 -100 41 -46 -11 -68 -42 -75 -104 -6 -51 -9 -58 -33 -64 -14 -4 -37
-17 -51 -30 -14 -12 -36 -26 -50 -30 -14 -4 -33 -14 -42 -23 -59 -51 33 152
111 246 29 35 78 83 109 108 114 89 318 176 477 203 67 12 268 13 261 2z m492
-348 c59 -75 75 -121 80 -220 2 -51 1 -93 -3 -93 -3 0 -31 16 -60 36 -85 56
-145 166 -145 265 0 31 4 38 23 42 60 12 75 7 105 -30z m-1141 -163 c3 -168 6
-186 34 -200 28 -16 66 10 77 53 4 17 16 33 25 35 14 3 17 -5 17 -45 0 -65
-24 -159 -47 -192 -11 -14 -28 -42 -38 -61 l-19 -35 -13 45 c-8 25 -21 78 -29
119 -25 126 -64 171 -159 179 -46 4 -55 8 -55 24 0 20 42 68 59 68 5 0 11 -17
13 -37 2 -30 8 -39 24 -41 21 -3 22 1 26 105 2 59 7 114 12 121 4 8 21 12 39
10 l32 -3 2 -145z m-257 -89 c0 -18 -27 -37 -38 -26 -5 4 26 45 35 45 1 0 3
-9 3 -19z m-1103 -1412 c-84 -24 -169 -62 -270 -122 -284 -169 -502 -433 -712
-862 -91 -184 -126 -287 -128 -371 -1 -35 -2 -64 -2 -64 0 0 -24 7 -53 14 -78
21 -139 61 -162 106 -45 88 -13 238 95 450 195 380 468 635 832 774 140 54
315 93 423 94 l45 1 -68 -20z m490 -19 c93 -15 226 -56 344 -106 120 -50 562
-293 653 -358 90 -65 268 -219 452 -392 89 -85 170 -154 178 -154 9 0 16 8 16
19 0 20 -209 224 -390 381 -148 129 -147 122 -19 84 143 -43 348 -88 504 -111
91 -13 185 -17 385 -18 272 0 354 7 519 46 46 11 86 17 89 14 3 -3 0 -58 -7
-123 -66 -636 -363 -1057 -844 -1196 -134 -39 -276 -56 -464 -56 -255 0 -439
28 -660 102 -316 104 -636 308 -845 539 -79 87 -202 248 -232 304 l-19 34 111
118 c60 65 126 138 147 162 33 41 35 45 20 60 -15 15 -23 8 -103 -79 -301
-328 -498 -520 -657 -640 -123 -92 -188 -127 -309 -165 -88 -27 -111 -31 -157
-25 -116 17 -194 51 -231 102 -36 51 -37 151 -3 253 32 97 142 323 224 461
240 404 556 661 901 735 97 20 299 25 397 9z m-317 -1122 c264 -389 657 -675
1120 -814 63 -19 120 -36 125 -38 15 -6 -94 3 -245 20 -582 66 -1061 251
-1333 514 l-78 75 173 162 c95 89 175 162 178 162 3 0 30 -36 60 -81z"/>
<path d="M3620 6153 c-27 -10 -39 -24 -33 -39 4 -11 20 -12 78 -7 59 5 78 2
103 -12 26 -16 33 -16 46 -5 19 15 8 33 -35 56 -27 14 -128 18 -159 7z"/>
<path d="M4444 6075 c-8 -21 2 -33 36 -40 46 -10 88 -51 96 -91 7 -37 28 -54
46 -36 16 16 0 78 -29 113 -44 52 -137 86 -149 54z"/>
<path d="M5113 5949 c-6 -6 -9 -26 -6 -45 4 -22 0 -42 -11 -58 -20 -32 -20
-42 1 -50 41 -16 81 91 54 143 -13 24 -22 26 -38 10z"/>
<path d="M4089 5835 c-71 -148 -75 -192 -23 -254 26 -31 57 -40 69 -21 4 6 -7
26 -24 46 -18 20 -31 46 -31 61 0 15 23 75 51 136 50 107 55 137 24 137 -11 0
-34 -36 -66 -105z"/>
<path d="M3960 5390 c0 -28 70 -71 124 -77 73 -9 176 37 176 78 0 25 -13 24
-77 -7 -62 -31 -114 -29 -162 5 -37 27 -61 27 -61 1z"/>
<path d="M11657 6169 c-202 -23 -418 -150 -541 -317 -297 -406 -134 -990 331
-1186 149 -62 95 -60 1173 -63 657 -3 1018 -1 1084 7 292 31 538 212 649 475
33 80 46 131 57 223 9 83 1 112 -30 112 -26 0 -40 -29 -40 -87 -1 -164 -110
-376 -254 -494 -74 -61 -198 -123 -286 -143 -97 -23 -2122 -23 -2218 -1 -204
48 -378 189 -471 380 -53 108 -71 189 -71 316 0 129 19 209 72 319 35 70 59
102 137 181 80 79 111 102 181 136 157 76 113 73 1074 73 572 0 864 3 877 10
10 6 19 19 19 30 0 11 -9 24 -19 30 -23 12 -1618 12 -1724 -1z"/>
<path d="M11620 5700 l0 -40 765 0 765 0 0 40 0 40 -765 0 -765 0 0 -40z"/>
<path d="M11620 5385 l0 -35 1070 0 1070 0 0 35 0 35 -1070 0 -1070 0 0 -35z"/>
<path d="M11608 5119 c-26 -15 -23 -55 5 -63 40 -11 1017 -7 1038 4 10 6 19
19 19 30 0 11 -9 24 -19 30 -27 14 -1019 13 -1043 -1z"/>
<path d="M7207 4706 c-9 -9 -14 -23 -10 -31 3 -8 145 -141 316 -295 347 -312
319 -295 441 -264 l63 16 139 -75 c153 -84 165 -85 184 -19 5 20 13 88 17 150
4 71 10 112 17 112 18 0 134 57 181 90 48 33 58 59 26 67 -11 3 -21 12 -24 22
-3 14 -107 34 -643 125 -351 59 -651 110 -665 113 -16 3 -32 -1 -42 -11z m722
-157 c611 -103 613 -103 590 -122 -32 -26 -115 -68 -164 -82 l-40 -12 -7 -114
c-4 -62 -9 -120 -11 -128 -1 -9 -16 23 -33 72 l-29 87 -115 54 c-63 29 -231
108 -373 174 -308 144 -323 150 -339 134 -10 -10 -9 -15 2 -26 8 -7 141 -72
295 -144 436 -203 439 -204 422 -214 -34 -18 -227 -78 -254 -78 -25 0 -76 42
-304 247 -151 135 -276 251 -278 256 -2 6 3 8 10 5 8 -3 290 -52 628 -109z
m287 -401 c9 -29 19 -59 22 -67 3 -8 -30 5 -77 30 l-82 43 48 22 c26 12 53 23
60 23 6 1 19 -23 29 -51z"/>
<path d="M7864 4489 c-3 -6 0 -17 7 -24 17 -16 361 -123 377 -117 7 2 12 12
12 22 0 15 -22 26 -112 54 -62 19 -142 44 -178 55 -74 24 -96 26 -106 10z"/>
<path d="M2585 4420 c-10 -16 -3 -22 105 -95 88 -60 102 -67 115 -54 19 19 13
26 -89 97 -87 60 -118 73 -131 52z"/>
<path d="M2422 4267 c-21 -25 6 -37 148 -62 182 -32 192 -32 188 -3 -3 20 -14
24 -128 44 -200 35 -197 35 -208 21z"/>
<path d="M9219 4254 c-23 -24 -24 -32 -24 -157 0 -73 4 -155 8 -184 7 -51 6
-54 -28 -92 -69 -77 -98 -70 -200 50 -131 151 -163 155 -262 35 -35 -42 -75
-36 -168 29 -69 49 -81 54 -94 41 -19 -19 -10 -30 77 -90 112 -77 185 -74 243
10 48 70 58 65 190 -87 94 -108 151 -117 235 -37 l31 29 13 -42 c8 -22 30 -59
50 -82 30 -33 43 -41 72 -41 74 0 109 43 149 181 30 103 46 128 97 150 22 9
32 19 30 31 -8 43 -91 9 -134 -56 -13 -18 -31 -67 -41 -109 -42 -178 -122
-196 -178 -40 -25 67 -25 68 -6 105 42 85 66 176 66 258 0 67 -4 86 -19 103
-27 30 -76 28 -107 -5z m77 -50 c13 -52 -25 -242 -46 -229 -13 8 -13 211 0
236 15 27 38 24 46 -7z"/>
<path d="M2593 4111 c-64 -6 -91 -20 -78 -42 11 -17 214 -4 233 15 34 34 -8
41 -155 27z"/>
<path d="M197 2643 c-4 -3 -7 -56 -7 -118 0 -111 8 -139 36 -128 11 4 14 33
14 129 0 114 -2 124 -18 124 -10 0 -22 -3 -25 -7z"/>
<path d="M318 2504 c-27 -41 -48 -81 -48 -88 0 -22 27 -26 43 -8 34 38 95 146
90 158 -12 31 -40 11 -85 -62z"/>
<path d="M12 2527 c-15 -17 -7 -27 66 -85 60 -49 92 -57 92 -26 0 13 -126 124
-141 124 -3 0 -11 -6 -17 -13z"/>
<path d="M6527 1863 c-4 -3 -7 -56 -7 -118 0 -111 8 -139 36 -128 11 4 14 33
14 129 0 114 -2 124 -18 124 -10 0 -22 -3 -25 -7z"/>
<path d="M6648 1724 c-27 -41 -48 -81 -48 -88 0 -22 27 -26 43 -8 34 38 95
146 90 158 -12 31 -40 11 -85 -62z"/>
<path d="M6342 1747 c-15 -17 -7 -27 66 -85 60 -49 92 -57 92 -26 0 13 -126
124 -141 124 -3 0 -11 -6 -17 -13z"/>
<path d="M7783 1169 c-197 -18 -468 -88 -713 -184 -205 -80 -230 -93 -230
-115 0 -25 29 -26 72 -4 63 33 280 114 406 153 232 71 365 95 541 95 106 1
155 -3 158 -10 2 -6 -40 -43 -94 -82 -120 -85 -152 -119 -159 -163 -13 -77 78
-123 236 -121 47 0 195 16 330 36 523 75 753 90 1240 83 347 -6 537 -18 817
-52 167 -21 175 -20 171 8 -3 21 -12 23 -138 39 -368 46 -491 53 -965 53 -515
0 -597 -6 -1090 -75 -368 -52 -515 -52 -549 3 -16 25 17 62 135 148 111 80
138 114 119 149 -6 12 -21 25 -33 29 -38 15 -158 19 -254 10z"/>
<path d="M13677 1163 c-4 -3 -7 -56 -7 -118 0 -111 8 -139 36 -128 11 4 14 33
14 129 0 114 -2 124 -18 124 -10 0 -22 -3 -25 -7z"/>
<path d="M13798 1024 c-27 -41 -48 -81 -48 -88 0 -22 27 -26 43 -8 34 38 95
146 90 158 -12 31 -40 11 -85 -62z"/>
<path d="M13492 1047 c-15 -17 -7 -27 66 -85 60 -49 92 -57 92 -26 0 13 -126
124 -141 124 -3 0 -11 -6 -17 -13z"/>
<path d="M432 419 c-92 -12 -214 -45 -322 -88 -75 -30 -96 -42 -98 -59 -5 -31
15 -28 120 14 128 51 271 85 342 82 l58 -3 -46 -33 c-77 -56 -69 -112 20 -132
39 -9 68 -6 294 27 159 23 664 26 834 4 91 -11 110 -11 117 0 15 25 -14 38
-105 49 -268 33 -609 29 -886 -10 -151 -21 -265 -26 -274 -11 -3 4 21 27 54
51 83 60 89 91 22 110 -41 11 -40 11 -130 -1z"/>
<path d="M3097 253 c-4 -3 -7 -56 -7 -118 0 -111 8 -139 36 -128 11 4 14 33
14 129 0 114 -2 124 -18 124 -10 0 -22 -3 -25 -7z"/>
<path d="M3218 114 c-27 -41 -48 -81 -48 -88 0 -22 27 -26 43 -8 34 38 95 146
90 158 -12 31 -40 11 -85 -62z"/>
<path d="M2912 137 c-15 -17 -7 -27 66 -85 60 -49 92 -57 92 -26 0 13 -126
124 -141 124 -3 0 -11 -6 -17 -13z"/>
</g>
</svg>
